<?xml version="1.0" encoding="UTF-8" standalone="no"?>
<svg
   width="13.277799in"
   height="13.902799in"
   viewBox="0 0 955.99993 1000.9999"
   version="1.1"
   id="svg12278"
   xmlns="http://www.w3.org/2000/svg"
   xmlns:svg="http://www.w3.org/2000/svg">
  <defs
     id="defs12282">
    <linearGradient
       id="linearGradient13689">
      <stop
         style="stop-color:#092c74;stop-opacity:1;"
         offset="0"
         id="stop13687" />
    </linearGradient>
  </defs>
  <path
     id="Selection"
     fill="none"
     stroke="black"
     stroke-width="1"
     d="m 956,0 c 0,0 0,1001 0,1001 0,0 -956,0 -956,0 C 0,1001 0,0 0,0 0,0 956,0 956,0 Z M 221,2.17 c 0,0 -23,3.55 -23,3.55 0,0 -18,1.58 -18,1.58 0,0 -17,3.4 -17,3.4 0,0 -17,1.6 -17,1.6 0,0 -11,2.44 -11,2.44 0,0 -19,2.54 -19,2.54 0,0 -14,3.11 -14,3.11 0,0 -14,1.9 -14,1.9 0,0 -10,2.62 -10,2.62 -9.93,1.88 -8.42,0.42 -20,3.66 0,0 -17,2.79 -17,2.79 0,0 -10,2.97 -10,2.97 0,0 -8,1.23 -8,1.23 C 16.4,37.4 9.95,43.5 7.79,50 6.25,54.61 6.01,59.21 6,64 c 0,0 0,103 0,103 0,0 1,15 1,15 0,0 0,18 0,18 0,0 1,15 1,15 0,0 0,6 0,6 0,0 1.3,19 1.3,19 0,0 1.53,8 1.53,8 0,0 1.26,20 1.26,20 0,0 0.9,9 0.9,9 0.16,5.63 -0.22,16.18 7.01,17.28 4.62,0.71 17.93,-3.17 23,-4.27 0,0 13,-2.01 13,-2.01 0,0 16,-3.56 16,-3.56 0,0 9,-0.91 9,-0.91 0,0 13,-3.24 13,-3.24 0,0 15,-1.59 15,-1.59 0,0 10,-2.53 10,-2.53 0,0 19,-2.34 19,-2.34 0,0 18,-3.4 18,-3.4 0,0 11,-0.72 11,-0.72 0,0 19,-3.43 19,-3.43 0,0 19,-1.56 19,-1.56 0,0 22,-3.72 22,-3.72 0,0 10,0 10,0 0,0 19,-2.29 19,-2.29 7.99,-1.07 15.88,-2.67 24,-2.71 0,0 10,0 10,0 6.14,-0.08 7.59,-1.01 13,-1.71 0,0 13,-1.2 13,-1.2 0,0 22,-1.09 22,-1.09 0,0 23,-1 23,-1 0,0 12,-0.96 12,-0.96 0,0 14,0 14,0 11.61,-0.06 7.39,-2.02 19,-2.04 0,0 25,0 25,0 0,0 17,-1 17,-1 0,0 64,0 64,0 0,0 15,1 15,1 0,0 24,0 24,0 11.61,0.02 7.39,1.98 19,2 0,0 32,1 32,1 0,0 15,1 15,1 0,0 37,2.17 37,2.17 5.58,0.61 5.53,1.74 13,1.83 0,0 27,1.17 27,1.17 0,0 26,3.66 26,3.66 0,0 20,1.38 20,1.38 0,0 13,2.51 13,2.51 0,0 18,1.56 18,1.56 0,0 21,3.44 21,3.44 0,0 16,1.57 16,1.57 0,0 11,2.54 11,2.54 0,0 16,1.61 16,1.61 0,0 14,3.13 14,3.13 0,0 16,2.05 16,2.05 0,0 13,3.09 13,3.09 0,0 14,1.8 14,1.8 0,0 11,2.87 11,2.87 0,0 19,3.61 19,3.61 4.15,1.1 15.05,3.63 18.57,0.97 3.54,-2.68 4.41,-18.36 4.43,-22.96 0,0 0,-4 0,-4 0,0 4,-45 4,-45 0,0 0,-4 0,-4 0,0 1,-15 1,-15 0,0 0,-15 0,-15 0,0 1,-15 1,-15 0,0 0,-110 0,-110 -0.02,-4.06 -0.38,-9.2 -1.87,-13 -2.33,-5.91 -9,-11.78 -15.13,-13.45 0,0 -8,-1.45 -8,-1.45 0,0 -11,-3.01 -11,-3.01 0,0 -16,-2.65 -16,-2.65 0,0 -21,-3.8 -21,-3.8 0,0 -8,-2.35 -8,-2.35 0,0 -14,-1.73 -14,-1.73 0,0 -14,-3.1 -14,-3.1 0,0 -16,-2.05 -16,-2.05 0,0 -15,-3.11 -15,-3.11 0,0 -17,-1.6 -17,-1.6 0,0 -15,-3.24 -15,-3.24 0,0 -10,-0.55 -10,-0.55 0,0 -10,-1.19 -10,-1.19 0,0 -13,-2.43 -13,-2.43 0,0 -29,-2.22 -29,-2.22 0,0 -318,0 -318,0 0,0 -108,0 -108,0 0,0 -57,0 -57,0 0,0 -13,1.1 -13,1.1 z m 101,33.97 c 0,0 22,0 22,0 0,0 11,0.9 11,0.9 0,0 9,0 9,0 0,0 18,2.79 18,2.79 0,0 12,0.6 12,0.6 0,0 20,4.11 20,4.11 0,0 10,1.08 10,1.08 0,0 12,3.34 12,3.34 0,0 9,1.56 9,1.56 0,0 8,2.71 8,2.71 0,0 9,2.07 9,2.07 6.2,1.75 10.94,5.1 18,4.51 6.12,-0.5 9.76,-3.03 15,-4.51 0,0 39,-9.86 39,-9.86 0,0 9,-0.9 9,-0.9 0,0 21,-4.25 21,-4.25 0,0 13,-0.57 13,-0.57 0,0 17,-2.63 17,-2.63 0,0 68,-1.09 68,-1.09 10.43,0.05 20.7,2.17 31,3.58 0,0 13,1.35 13,1.35 0,0 41,19.44 41,19.44 3.42,1.71 9.4,4.6 11.89,7.31 2.68,2.92 2.62,4.97 4.19,8.32 0,0 9.78,21 9.78,21 0,0 17.77,40 17.77,40 0,0 11.74,25 11.74,25 0,0 14.41,32 14.41,32 0,0 13.13,29 13.13,29 1.2,2.59 4.06,8.96 2.77,11.69 -1.31,2.75 -6.12,2.35 -8.68,2.3 -7.77,-0.18 -12.82,-2.22 -20,-3.71 0,0 -15,-1.72 -15,-1.72 0,0 -17,-3.39 -17,-3.39 0,0 -22,-2.3 -22,-2.3 0,0 -16,-2.7 -16,-2.7 0,0 -21,-1.34 -21,-1.34 0,0 -19,-2.66 -19,-2.66 0,0 -36,-2.26 -36,-2.26 0,0 -9,-1.73 -9,-1.73 0,0 -41,-2.18 -41,-2.18 0,0 -35,-1 -35,-1 0,0 -17,-1 -17,-1 0,0 -27,0 -27,0 0,0 -22,-2 -22,-2 0,0 -57,0 -57,0 0,0 -21,2 -21,2 0,0 -28,0 -28,0 0,0 -17,1 -17,1 0,0 -34,1 -34,1 0,0 -17,1 -17,1 0,0 -15,1.01 -15,1.01 0,0 -9,0 -9,0 0,0 -9,1.89 -9,1.89 0,0 -36,2.19 -36,2.19 0,0 -33,3.91 -33,3.91 -13.96,0.16 -17.43,2.19 -30,3.72 0,0 -17,1.58 -17,1.58 0,0 -17,3.41 -17,3.41 0,0 -9,0.72 -9,0.72 -8.72,1.25 -15.9,4.35 -25,4.56 -2.24,0.05 -6.68,0.31 -8.22,-1.59 -2.53,-3.12 4.08,-15.97 5.7,-19.4 0,0 29,-64 29,-64 0,0 11.42,-25 11.42,-25 0,0 2.21,-6 2.21,-6 0,0 11.86,-25 11.86,-25 2.46,-5.41 10.35,-24.52 13.3,-27.95 3.96,-4.59 18.69,-11.04 24.73,-13.93 6.73,-3.23 20.63,-11.01 27,-12.82 0,0 38,-5.16 38,-5.16 0,0 34,0 34,0 z m -61,33.81 c 0,0 -26,11.57 -26,11.57 0,0 -10.36,6.09 -10.36,6.09 0,0 -7.24,15.39 -7.24,15.39 0,0 -9.35,21 -9.35,21 0,0 -12.02,27 -12.02,27 0,0 -2.67,7 -2.67,7 0,0 -15.36,36 -15.36,36 6.54,3.02 17.07,1.22 24,-0.6 3.08,-0.81 4.47,-1.77 8,-2.22 0,0 25,-2.35 25,-2.35 0,0 9,-1.54 9,-1.54 0,0 20,-1.29 20,-1.29 0,0 14,-1.04 14,-1.04 0,0 14,0 14,0 0,0 12,-0.96 12,-0.96 0,0 80,0 80,0 0,0 13,1 13,1 0,0 21,0 21,0 0,0 12,0.95 12,0.95 0,0 18,0 18,0 3.81,-0.01 8.4,-0.02 8.8,-4.95 0.1,-1.16 -0.11,-2.39 -0.79,-3.35 -1.33,-1.89 -7.7,-4.31 -10.01,-5.11 0,0 -11,-2.76 -11,-2.76 0,0 -8,-2.85 -8,-2.85 0,0 -8,-1.76 -8,-1.76 0,0 -7,-2.47 -7,-2.47 0,0 -11,-2.04 -11,-2.04 0,0 -10,-2.85 -10,-2.85 0,0 -23,-4.54 -23,-4.54 0,0 -20,-2.4 -20,-2.4 -7.69,-1.07 -15.22,-2.86 -23,-2.87 0,0 -56,0 -56,0 -11.04,0.13 -21.88,4.89 -33,3 0,0 2.24,-8 2.24,-8 0,0 2.95,-7 2.95,-7 0,0 11.47,-32 11.47,-32 0,0 2.69,-6 2.69,-6 0,0 9.65,-28.05 9.65,-28.05 0,0 -4,0 -4,0 z M 696.43,86 c 0,0 7.65,20 7.65,20 0,0 9.81,26 9.81,26 0,0 1.92,6 1.92,6 1.14,3.1 5.77,10.39 1.84,12.83 -1.94,1.37 -7.31,0.23 -9.65,0 -7.91,-1.23 -16.02,-2.82 -24,-2.83 0,0 -52,0 -52,0 -7.78,0.01 -15.31,1.8 -23,2.87 0,0 -22,2.45 -22,2.45 0,0 -13,3.24 -13,3.24 0,0 -10,1.46 -10,1.46 0,0 -9,2.69 -9,2.69 0,0 -10,1.97 -10,1.97 0,0 -9,2.83 -9,2.83 0,0 -9,2 -9,2 0,0 -7,2.66 -7,2.66 -4.68,1.49 -16.27,3.55 -19.4,7.26 -2.5,2.96 -1.48,7.18 2.46,8.41 0,0 19.94,0 19.94,0 0,0 13,-0.84 13,-0.84 0,0 22,0 22,0 0,0 17,-1 17,-1 0,0 80,0 80,0 0,0 15,1.04 15,1.04 0,0 11,0 11,0 0,0 10,0.96 10,0.96 0,0 21,1.21 21,1.21 0,0 8,1.69 8,1.69 0,0 28,2.42 28,2.42 0,0 10,2.59 10,2.59 0,0 9,1.24 9,1.24 4.67,0.55 10.7,2.11 9.66,-5.17 -0.56,-3.84 -3.07,-7.4 -4.57,-10.98 0,0 -13.57,-31 -13.57,-31 0,0 -18.14,-42 -18.14,-42 -1.92,-4.22 -5.89,-15.49 -8.8,-18.4 C 727.63,83.63 714.56,78.48 709,75.97 704.7,74.04 698.84,70.4 694.31,69.89 689.66,73 694.97,81.34 696.43,86 Z M 403,292 c 0,0 -11,0.98 -11,0.98 0,0 -17,0 -17,0 0,0 -16,1.02 -16,1.02 0,0 -26,1.17 -26,1.17 0,0 -10,1.79 -10,1.79 0,0 -9,0 -9,0 0,0 -21,1.04 -21,1.04 0,0 -33,3.83 -33,3.83 0,0 -21,1.34 -21,1.34 0,0 -16,2.53 -16,2.53 0,0 -27,2.58 -27,2.58 0,0 -19,3.3 -19,3.3 0,0 -12,0.74 -12,0.74 0,0 -16,3.38 -16,3.38 0,0 -17,1.6 -17,1.6 0,0 -10,2.42 -10,2.42 0,0 -20,2.6 -20,2.6 0,0 -9,2.39 -9,2.39 0,0 -13,1.73 -13,1.73 0,0 -17,3.76 -17,3.76 -7.93,1.51 -6.22,0.01 -16,2.8 -5.35,1.53 -19.55,2.79 -22.57,5.65 -2.58,2.44 -2.59,6.07 -2.13,9.35 0,0 2.42,10 2.42,10 0,0 2.54,16 2.54,16 0,0 2.93,12 2.93,12 0,0 1.85,12 1.85,12 0,0 2.67,9 2.67,9 0,0 1.95,11 1.95,11 0,0 2.83,10 2.83,10 0,0 1.44,8 1.44,8 0,0 3.14,9 3.14,9 0,0 1.63,9 1.63,9 0,0 2.79,8 2.79,8 0,0 2.1,9 2.1,9 0,0 2.9,8 2.9,8 0,0 1.45,7 1.45,7 0,0 3.23,8 3.23,8 0,0 4.29,13 4.29,13 0,0 2.14,8 2.14,8 0,0 7.28,19 7.28,19 0,0 2.07,7 2.07,7 0,0 3.1,7 3.1,7 0,0 27.32,64 27.32,64 39.04,83.22 90,159.53 152.54,227 0,0 12.13,14 12.13,14 0,0 41.98,39.92 41.98,39.92 37.45,33.34 65.78,55.9 107.98,83.26 0,0 26,15.92 26,15.92 2.46,1.49 8.02,5.63 10.77,4.94 3.77,-0.95 3.23,-7.1 3.23,-10.04 0,0 0,-535 0,-535 0,0 0,-124 0,-124 0,0 0,-27 0,-27 -0.04,-3.05 -0.05,-7.18 -2.51,-9.4 -2.71,-2.44 -11.92,-1.68 -15.49,-1.23 -12.26,3.01 -25.43,1.49 -38,1.63 z m 170,1 c 0,0 -17,-1 -17,-1 0,0 -29,0 -29,0 0,0 -16,-2 -16,-2 -11.47,-0.13 -12.98,1.3 -13,13 0,0 0,72 0,72 0,3.17 -0.19,7.04 1.31,9.91 2.61,4.99 12.86,10.43 17.69,13.68 0,0 48,32.23 48,32.23 4.74,3.23 17.55,10.29 19.4,15.19 0.71,1.89 0.6,4.94 0.6,6.99 0,0 0,178 0,178 0,2.31 0.32,6.68 -1.6,8.3 -1.94,1.64 -4.33,0.3 -6.12,-0.83 0,0 -13.28,-9 -13.28,-9 0,0 -24,-16.08 -24,-16.08 0,0 -19.72,-12.65 -19.72,-12.65 -3.11,-2.15 -15.39,-11.16 -18.22,-11.12 -4.58,0.07 -4.05,6.29 -4.06,9.38 0,0 0,388 0,388 0.01,3.45 -0.34,10.53 5.02,9.96 1.69,-0.18 4.41,-2.08 5.98,-2.94 0,0 16,-9.49 16,-9.49 0,0 33,-21.12 33,-21.12 0,0 14,-10.41 14,-10.41 9.64,-6.96 15.97,-8.05 16,-21 0,0 0,-188 0,-188 0,0 0,-57 0,-57 0,-11.98 -1.09,-24.33 2,-36 0,0 33.17,22.09 33.17,22.09 0,0 29.83,19.73 29.83,19.73 4.77,3.23 17.27,10.14 19.26,15.2 0.87,2.21 0.74,5.58 0.74,7.98 0,0 0,104 0,104 0,0 0,28 0,28 0,6.52 -0.81,10.94 2,17 8.52,-6.1 23.2,-23.32 30.75,-31.97 0,0 17.17,-19.04 17.17,-19.04 0,0 31.57,-39.71 31.57,-39.71 24.78,-32.34 47.55,-66.77 67.58,-102.28 0,0 16.67,-32 16.67,-32 0,0 5.59,-10 5.59,-10 0,0 6.43,-15 6.43,-15 0,0 4.61,-8 4.61,-8 0,0 23.03,-54 23.03,-54 0,0 7.19,-20 7.19,-20 0,0 6.86,-18 6.86,-18 0,0 2.2,-8 2.2,-8 0,0 7.11,-20 7.11,-20 0,0 2.07,-9 2.07,-9 0,0 2.71,-7 2.71,-7 0,0 2.38,-10 2.38,-10 0,0 7.16,-25 7.16,-25 0,0 1.84,-10 1.84,-10 0,0 2.84,-9 2.84,-9 0,0 1.92,-11 1.92,-11 0,0 2.86,-10 2.86,-10 0,0 3.17,-17 3.17,-17 0,0 4.33,-24 4.33,-24 1.2,-4.28 3.45,-11.58 0.79,-15.7 -2.49,-3.86 -15.15,-4.08 -19.83,-5.2 0,0 -46,-8.68 -46,-8.68 -4.48,-0.65 -13.66,-3.86 -16.94,-2.98 -4.66,1.26 -4.05,5.72 -4.06,9.56 0,0 0,269 0,269 0,2.69 0.53,9.48 -3.23,9.98 -1.87,0.24 -4.27,-1.53 -5.77,-2.49 0,0 -14,-9.22 -14,-9.22 0,0 -47,-31.32 -47,-31.32 -13.47,-9.31 -14.98,-7.31 -15,-17.95 0,0 0,-233 0,-233 0,-2 0.24,-5.8 -1.02,-7.4 -2.07,-2.64 -15.18,-2.67 -18.98,-3.18 0,0 -22,-3.25 -22,-3.25 0,0 -23,-1.34 -23,-1.34 0,0 -15,-1.82 -15,-1.82 -8.99,-0.2 -8.99,1.02 -9,9.99 0,0 0,125 0,125 0,0 0,37 0,37 0,9.94 0.81,16.26 -2,26 -6.2,-5.09 -9.75,-6.68 -16,-10.84 0,0 -21,-14.57 -21,-14.57 0,0 -25.72,-16.97 -25.72,-16.97 -4.95,-3.47 -17.67,-10.43 -19.68,-15.66 -0.72,-1.85 -0.6,-4.94 -0.6,-6.96 0,0 0,-139 0,-139 -7.06,-1.27 -8.03,-0.99 -15,-1 z m -290,74.21 c 0,0 23,2.47 23,2.47 0,0 9,2.83 9,2.83 45.17,12.2 83.17,45.12 103.02,87.49 0,0 2.79,8 2.79,8 0,0 7.27,21 7.27,21 0,0 4.92,32 4.92,32 0,0 0,14 0,14 -0.07,5.35 -1.86,11.53 -2.75,17 0,0 -1.93,13 -1.93,13 0,0 -2.88,9 -2.88,9 -5.87,19.67 -11.51,30.07 -22.95,47 -11.54,17.08 -28.86,33.21 -46.49,43.9 -14.19,8.59 -29.1,14.45 -45,18.84 0,0 -11,2.96 -11,2.96 0,0 -30,2.26 -30,2.26 0,0 -21,-1.79 -21,-1.79 0,0 -8,-0.64 -8,-0.64 0,0 -10,-3.04 -10,-3.04 -23.67,-6.39 -46.08,-17.32 -64.91,-33.29 -22.1,-18.75 -41.14,-48.42 -49.31,-76.2 0,0 -1.79,-9 -1.79,-9 -2.12,-9.78 -3.97,-11.04 -3.99,-22 0,0 0,-30 0,-30 0.02,-10.33 1.58,-12.58 3.77,-22 0,0 2.01,-10 2.01,-10 0,0 3.13,-8 3.13,-8 5,-13.84 9.75,-24.02 18.24,-36.17 13.41,-19.18 25.32,-31.16 44.85,-44.15 9.55,-6.36 19.42,-11 30,-15.28 0,0 6,-2.74 6,-2.74 0,0 10,-2.43 10,-2.43 0,0 9,-2.76 9,-2.76 0,0 15,-2.26 15,-2.26 0,0 30,0 30,0 z m -90,77.68 c 2.72,0.68 7.04,2.52 9.61,1.05 1.75,-1 4.05,-5.13 5.11,-6.94 0,0 10.46,-18 10.46,-18 0,0 11.96,-17 11.96,-17 1.16,-1.63 3.15,-4.35 1.78,-6.4 -2.64,-3.93 -14.56,2.59 -17.92,3.86 -14.3,5.41 -38.17,21.97 -45,35.54 7.64,3.71 15.81,5.85 24,7.89 z M 361.91,422.8 c -7.81,-6.71 -23.45,-17.49 -32.91,-21.26 -3.39,-1.35 -10.86,-4.59 -14,-5.06 -1.48,-0.22 -3.93,-0.44 -4.84,1.12 -0.99,1.72 0.62,4.03 1.56,5.4 0,0 10.41,14 10.41,14 0,0 11.9,20 11.9,20 1.73,3.44 2.96,7.66 7.01,9.05 3.14,1.08 6.83,-0.84 9.96,-1.54 0,0 6,-1.06 6,-1.06 0,0 7,-2.85 7,-2.85 0,0 9,-2.6 9,-2.6 -1.45,-7.11 -5.76,-10.62 -11.09,-15.2 z m -109.4,-11.2 c -3.6,3.42 -15.28,20.46 -18.09,25.4 -1.75,3.08 -7.62,11.82 -3.85,14.83 1.79,1.41 6.19,1.17 8.43,1.17 4.06,0.01 16.95,1.44 19.4,-0.85 1.83,-1.72 1.58,-4.85 1.6,-7.15 0.05,-8.19 0.85,-31.47 -1,-38 -2.25,1.39 -4.56,2.76 -6.49,4.6 z M 283,418 c 0,0 0,26 0,26 0,2.51 -0.32,6.51 1.6,8.4 2.01,1.98 4.94,1.16 7.4,0.74 0,0 13,0 13,0 10.07,-0.28 9.44,-5.7 5.11,-13.14 -4.8,-8.24 -8.84,-14.47 -14.77,-21.96 -2.65,-3.35 -4.81,-7.27 -8.42,-9.59 -4.83,0.38 -3.91,5.76 -3.92,9.55 z m -136.48,50 c -1.82,3.49 -5.91,13.35 -7,17 0,0 -2.74,11 -2.74,11 -1.11,3.35 -3.47,12.66 -2.17,15.85 1.5,3.7 6.14,3.14 9.39,3.15 0,0 33,0 33,0 2.54,-0.01 6.47,0.32 8.4,-1.6 1.72,-1.71 1.77,-5.96 2.26,-8.4 0,0 2.9,-14 2.9,-14 0,0 0.77,-7 0.77,-7 0.71,-3.99 3.89,-9.75 2.07,-13.72 -1.51,-3.31 -7.23,-3.53 -10.4,-4.32 -6.33,-1.59 -22.89,-8.57 -27.96,-8.44 -5.53,2.15 -5.98,5.6 -8.52,10.48 z M 359,466.07 c -3.23,0.89 -7.67,0.7 -9.03,4.16 -1.54,2.84 -0.4,7.79 0,10.77 0,0 3.59,13 3.59,13 0,0 0.72,9 0.72,9 0.31,2.55 0.59,8.58 2.32,10.26 2.11,2.06 6.63,1.74 9.4,1.74 0,0 32,0 32,0 2.93,-0.01 7.37,0.37 9.15,-2.31 1.76,-2.24 0.13,-6.9 0,-9.69 -1.27,-11.44 -5.31,-22.65 -10.13,-33 -2.31,-4.98 -4.1,-11.6 -10.04,-12.57 0,0 -27.98,8.64 -27.98,8.64 z M 213.42,491 c -2.36,15.87 -7.54,23.77 4.58,24 0,0 32,0 32,0 2.54,-0.01 6.48,0.32 8.4,-1.6 1.92,-1.92 1.59,-5.86 1.6,-8.4 0,0 0,-20 0,-20 -0.05,-2.52 0.05,-5.4 -2.31,-6.98 -1.85,-1.23 -6.31,-1.02 -8.69,-1.3 0,0 -27.96,-2.03 -27.96,-2.03 -6.47,3.5 -6.65,9.76 -7.62,16.31 z M 308,475.91 c 0,0 -14,0.81 -14,0.81 -2.74,0.32 -7.3,-0.13 -9.26,1.88 -2.06,2.11 -1.74,6.63 -1.74,9.4 0,0 0,19 0,19 0.04,2.14 -0.04,4.77 1.6,6.4 1.92,1.92 5.86,1.59 8.4,1.6 0,0 24,0 24,0 2.57,0 9.84,0.28 11.85,-0.6 3.13,-1.36 3.2,-4.44 2.98,-7.4 -0.7,-9.05 -1.21,-13.25 -3.8,-22 -1.76,-5.97 -0.96,-9.38 -8.05,-10.28 0,0 -11.98,1.19 -11.98,1.19 z m 381,36.81 c 0,0 30,19.97 30,19.97 0,0 25,16.47 25,16.47 10.64,7.06 16.98,8.06 17,21.84 0,0 0,177 0,177 -0.01,3.19 0.77,9.82 -4.11,9.52 -3.93,-0.23 -16.69,-10.15 -20.89,-12.77 0,0 -42,-28.11 -42,-28.11 -4.73,-3.07 -16.82,-9.86 -18.99,-14.74 -1.17,-2.62 -1.01,-6.07 -1.01,-8.9 0,0 0,-136 0,-136 0,0 0,-35 0,-35 0,-4.38 -1.08,-11.38 1.6,-14.87 4.66,-0.99 9.6,3.14 13.4,5.59 z M 135.74,555 c 0,0 3.64,15 3.64,15 0,0 7.15,17 7.15,17 1.63,3.21 3.67,8.19 6.77,10.17 3.78,2.42 7.25,-0.48 10.7,-1.92 0,0 15,-4.95 15,-4.95 0,0 9.98,-2.44 9.98,-2.44 9.1,-3.81 3.55,-10.36 2.34,-16.86 0,0 -3.81,-22 -3.81,-22 -0.61,-2.86 -0.55,-6.33 -2.94,-8.4 -2.04,-1.78 -5.04,-1.58 -7.57,-1.6 0,0 -39.72,0.6 -39.72,0.6 -4.89,3.7 -2.96,10.25 -1.54,15.4 z m 76.81,4 c 1.22,6.11 1.42,17.72 7.55,21.03 2.66,1.34 6.02,0.25 8.9,0 0,0 20,-1.12 20,-1.12 2.46,-0.18 7.47,-0.97 9.26,-2.73 2.11,-2.07 1.74,-6.43 1.74,-9.18 0,0 0,-19 0,-19 -0.04,-2.73 0.13,-6.01 -2.43,-7.71 -2.09,-1.39 -6.11,-1.28 -8.57,-1.07 0,0 -33.98,0 -33.98,0 -8.12,3.67 -3.84,12.91 -2.47,19.78 z m 71.19,-15.94 c -1.22,2.92 -0.8,20.61 -0.74,24.94 0.04,2.97 0,6.26 2.43,8.41 1.85,1.63 6.13,2.18 8.57,2.42 0,0 19,1.42 19,1.42 2.88,0.05 6.15,0.96 8.95,0 5.13,-1.29 5.02,-6.97 6.25,-11.25 2.81,-9.73 2.12,-8.5 3.38,-18 0.4,-3.03 0.95,-7.15 -1.18,-9.69 -1.93,-2.28 -4.67,-2.26 -7.4,-2.31 0,0 -35.89,0.6 -35.89,0.6 -1.85,1.18 -2.43,1.2 -3.37,3.46 z m 73,-1.41 c -2.68,2.97 -2.42,14.99 -3.2,19.35 -1.02,5.65 -5.85,17.82 -3.8,22.95 1.77,4.42 6.21,4.78 10.26,5.65 0,0 19,5.74 19,5.74 2.92,1.17 6.5,3.19 9.79,2.35 3.6,-0.92 7.42,-10.33 8.74,-13.69 4.4,-11.23 7.9,-18.74 9.42,-31 0.86,-6.92 4.56,-13.77 -7.95,-13.8 0,0 -37.98,0 -37.98,0 -1.74,0.78 -2.95,0.98 -4.28,2.45 z M 260,611 c -0.02,-2.35 0.19,-5.61 -1.6,-7.4 -2.86,-2.86 -15.39,-1.36 -19.4,-0.88 -2.64,0.31 -8.46,-0.26 -9.64,2.59 -1.01,2.46 3.04,9.36 4.35,11.69 2.55,4.53 13.53,19.96 16.91,23.96 0,0 6.38,7.04 6.38,7.04 0,0 2,0 2,0 1.84,-6.48 1.05,-28.92 1,-37 z m 41.46,18 c 0,0 9.8,-16 9.8,-16 1.03,-1.97 2.64,-5.5 1.54,-7.69 -1.32,-2.61 -7.12,-2.53 -9.8,-2.89 -4,-0.53 -16.61,-1.66 -18.98,1.89 -1.23,1.85 -1.02,5.5 -1.02,7.69 0,0 0,26 0,26 0.04,5.14 -0.33,7.3 5,9 0,0 13.46,-18 13.46,-18 z m -77.49,13.91 C 219.61,636.93 215.65,630.44 212,624 c -1.88,-3.32 -6.45,-13.09 -9.39,-14.79 -3.01,-1.74 -7.58,0.35 -10.61,1.28 -8.62,2.66 -16.38,2.12 -23,9.51 13.01,15.84 25.11,23.72 43,32.96 2.17,1.13 15.13,6.27 17,6.34 2.19,0.09 3.1,-0.51 5,-1.3 -2.21,-5.65 -6.48,-10.22 -10.03,-15.09 z M 324,655.53 c 13.26,-5.06 25.09,-12.41 35.96,-21.53 2.41,-2.03 12.7,-11.3 12.71,-14.06 0,-2.91 -5.43,-4.73 -7.67,-5.63 -5.88,-2.36 -7.18,-1.71 -12,-3.09 -5.64,-1.62 -9.58,-5.08 -14.78,0 -2.23,2.19 -5.59,9.51 -7.53,12.78 -5.31,8.95 -15.08,25.66 -22.69,32 0,0 0,2 0,2 7.63,2.16 9.19,0.13 16,-2.47 z"
     style="display:inline;fill:#092c74;fill-opacity:1;fill-rule:evenodd;stroke:none" />
</svg>
